<svg width="259" height="102" viewBox="0 0 259 102" fill="none" xmlns="http://www.w3.org/2000/svg">
<path d="M0.433394 56.1469C0.795361 55.7849 1.3383 55.6039 2.06224 55.6039H7.92611C9.08441 55.6039 9.84453 56.2554 10.2065 57.5585C12.0163 65.3046 18.1698 69.1777 28.6668 69.1777C34.3135 69.1777 38.6933 68.0194 41.8062 65.7028C44.9916 63.3862 46.5842 60.2733 46.5842 56.364C46.5842 49.921 42.2406 45.9394 33.5534 44.4191L22.0428 42.2473C7.78133 39.6411 0.650573 32.6552 0.650573 21.2894C0.650573 14.8464 2.96716 9.70646 7.60034 5.86961C12.3059 1.96036 19.0023 0.0057373 27.6895 0.0057373C44.4124 0.0057373 53.6426 7.1003 55.38 21.2894C55.38 21.5066 55.38 21.6876 55.38 21.8324C55.38 22.9907 54.7285 23.5698 53.4254 23.5698H47.7787C46.4756 23.5698 45.7155 22.8821 45.4983 21.5066C44.9192 17.0906 43.1455 13.9053 40.1774 11.9507C37.2817 9.99603 33.0828 9.01872 27.5809 9.01872C16.3599 9.01872 10.7494 13.0366 10.7494 21.0722C10.7494 24.4747 11.8354 27.1533 14.0072 29.1079C16.2514 30.9901 20.1968 32.4742 25.8435 33.5601L37.354 35.6233C50.2401 38.0847 56.6831 44.8173 56.6831 55.8211C56.6831 62.6985 54.1855 68.1642 49.1904 72.2182C44.1952 76.1998 37.3902 78.1907 28.7754 78.1907C20.6674 78.1907 14.1157 76.417 9.1206 72.8697C4.12545 69.3225 1.12112 64.3273 0.107613 57.8843C0.0352198 57.6671 -0.000976562 57.4861 -0.000976562 57.3413C-0.000976562 56.8346 0.14382 56.4364 0.433394 56.1469Z" fill="#374151"/>
<path d="M67.1103 33.0171C71.9607 27.9496 77.9331 25.4158 85.0277 25.4158C88.9369 25.4158 92.5204 26.2484 95.7781 27.9134C99.0358 29.5785 101.425 31.8227 102.945 34.646H103.162V28.6735C103.162 27.2257 103.886 26.5017 105.334 26.5017H110.221C111.668 26.5017 112.392 27.2257 112.392 28.6735V74.933C112.392 76.3808 111.668 77.1048 110.221 77.1048H105.334C103.886 77.1048 103.162 76.3808 103.162 74.933V68.9605H102.945C101.497 71.8562 99.1444 74.1366 95.8867 75.8017C92.629 77.3943 89.0093 78.1907 85.0277 78.1907C77.9331 78.1907 71.9245 75.6569 67.0017 70.5893C62.1514 65.5218 59.7262 59.2598 59.7262 51.8032C59.7262 44.3467 62.1875 38.0847 67.1103 33.0171ZM74.0601 64.7255C77.173 68.128 81.2632 69.8292 86.3308 69.8292C91.3983 69.8292 95.4885 68.128 98.6014 64.7255C101.714 61.323 103.271 57.0156 103.271 51.8032C103.271 46.6633 101.678 42.3921 98.4928 38.9896C95.3799 35.5871 91.3259 33.8859 86.3308 33.8859C81.2632 33.8859 77.1368 35.5871 73.9515 38.9896C70.8386 42.3921 69.2821 46.6633 69.2821 51.8032C69.2821 57.0156 70.8747 61.323 74.0601 64.7255Z" fill="#374151"/>
<path d="M120.678 26.5017H125.565C127.013 26.5017 127.737 27.2257 127.737 28.6735V36.6006H127.845C130.813 29.2889 136.279 25.633 144.242 25.633C144.966 25.633 145.98 25.7054 147.283 25.8502C148.514 26.1398 149.129 26.9723 149.129 28.3478V32.5828C149.129 33.8135 148.55 34.4288 147.391 34.4288C147.247 34.4288 147.066 34.4288 146.849 34.4288C146.342 34.3564 145.437 34.3202 144.134 34.3202C138.994 34.3202 134.976 36.0215 132.08 39.424C129.257 42.8265 127.845 48.0388 127.845 55.061V74.933C127.845 76.3808 127.121 77.1048 125.673 77.1048H120.678C119.23 77.1048 118.507 76.3808 118.507 74.933V28.6735C118.507 27.2257 119.23 26.5017 120.678 26.5017Z" fill="#374151"/>
<path d="M153.879 84.3803H158.983C160.141 84.3803 160.937 84.9956 161.372 86.2263C162.892 91.1491 167.417 93.6105 174.945 93.6105C185.081 93.6105 190.148 88.4343 190.148 78.0821V67.8746H189.822C188.447 70.6979 186.203 72.9783 183.09 74.7158C180.049 76.3808 176.393 77.2133 172.122 77.2133C165.896 77.2133 161.01 75.3673 157.462 71.6752C153.988 67.9108 152.25 62.7709 152.25 56.2554V28.6735C152.25 27.2257 152.938 26.5017 154.313 26.5017H159.417C160.865 26.5017 161.589 27.2257 161.589 28.6735V53.8665C161.589 63.7844 165.86 68.7433 174.402 68.7433C179.036 68.7433 182.764 67.3678 185.587 64.6169C188.483 61.8659 189.931 58.1739 189.931 53.5407V28.6735C189.931 27.2257 190.655 26.5017 192.103 26.5017H197.098C198.546 26.5017 199.27 27.2257 199.27 28.6735V78.0821C199.27 85.611 197.134 91.4025 192.863 95.4565C188.592 99.5829 182.619 101.646 174.945 101.646C168.502 101.646 163.29 100.271 159.308 97.5197C155.327 94.8412 152.829 91.1853 151.816 86.5521C151.816 86.4073 151.816 86.2263 151.816 86.0092C151.816 84.9233 152.503 84.3803 153.879 84.3803Z" fill="#374151"/>
<path d="M212.842 33.0171C217.692 27.9496 223.665 25.4158 230.759 25.4158C234.668 25.4158 238.252 26.2484 241.509 27.9134C244.767 29.5785 247.156 31.8227 248.676 34.646H248.894V28.6735C248.894 27.2257 249.618 26.5017 251.065 26.5017H255.952C257.4 26.5017 258.124 27.2257 258.124 28.6735V74.933C258.124 76.3808 257.4 77.1048 255.952 77.1048H251.065C249.618 77.1048 248.894 76.3808 248.894 74.933V68.9605H248.676C247.229 71.8562 244.876 74.1366 241.618 75.8017C238.36 77.3943 234.741 78.1907 230.759 78.1907C223.665 78.1907 217.656 75.6569 212.733 70.5893C207.883 65.5218 205.458 59.2598 205.458 51.8032C205.458 44.3467 207.919 38.0847 212.842 33.0171ZM219.791 64.7255C222.904 68.128 226.995 69.8292 232.062 69.8292C237.13 69.8292 241.22 68.128 244.333 64.7255C247.446 61.323 249.002 57.0156 249.002 51.8032C249.002 46.6633 247.41 42.3921 244.224 38.9896C241.111 35.5871 237.057 33.8859 232.062 33.8859C226.995 33.8859 222.868 35.5871 219.683 38.9896C216.57 42.3921 215.014 46.6633 215.014 51.8032C215.014 57.0156 216.606 61.323 219.791 64.7255Z" fill="#374151"/>
</svg>
